Coordinates
version=1
nRows=18
nColumns=22
inDegrees=yes

Units are S.I. units (second, meters, Newtons, ...)
If the header above contains a line with 'inDegrees', this indicates whether rotational values are in degrees (yes) or radians (no).

endheader
time	pelvis_tilt	pelvis_list	pelvis_rotation	pelvis_tx	pelvis_ty	pelvis_tz	hip_flexion_r	hip_adduction_r	hip_rotation_r	knee_angle_r	ankle_angle_r	subtalar_angle_r	hip_flexion_l	hip_adduction_l	hip_rotation_l	knee_angle_l	ankle_angle_l	subtalar_angle_l	lumbar_extension	lumbar_bending	lumbar_rotation
      3.34000000	     -5.20260186	      5.61659889	    152.46953757	      0.69541418	      0.91270881	     -0.54228288	    -16.51879395	     -2.40475804	     -8.26640876	    -39.21533466	    -15.33774441	     19.56358237	     17.75789980	      3.11595794	    -17.13049820	    -27.91052423	     13.97094014	    -31.87789753	    -11.40853502	     -0.21114951	     -4.12018406
      3.35000000	     -5.30970165	      5.48639724	    152.77249508	      0.68556694	      0.91438798	     -0.54578820	    -14.91784338	     -2.80678840	     -7.42145924	    -41.77300402	    -16.07370193	     20.12656791	     16.90629832	      3.45572512	    -16.97842378	    -27.74484647	     14.61980931	    -31.65062644	    -11.50127486	     -0.26247455	     -4.07811286
      3.36000000	     -5.43656580	      5.35615942	    153.05498441	      0.67598882	      0.91600699	     -0.54910311	    -13.20682277	     -3.24537636	     -6.69826550	    -44.32630765	    -16.10806253	     20.49664336	     15.99316810	      3.79355055	    -16.92215121	    -27.47269274	     15.20512355	    -31.36055345	    -11.66654998	     -0.30905527	     -4.06046168
      3.37000000	     -5.59057148	      5.20556947	    153.33341603	      0.66661398	      0.91754459	     -0.55221179	    -11.40831973	     -3.74203485	     -6.10021487	    -46.82738504	    -15.55541539	     20.67762986	     15.03663760	      4.15574077	    -16.95194990	    -27.12698755	     15.78417010	    -31.03469436	    -11.89147682	     -0.37266208	     -4.09318627
      3.38000000	     -5.69827094	      5.03379811	    153.61846345	      0.65742935	      0.91895462	     -0.55510603	     -9.47514713	     -4.23549744	     -5.56978440	    -49.21556706	    -14.54522839	     20.64934207	     14.10918395	      4.53055558	    -16.94018406	    -26.69237774	     16.19654627	    -30.53386860	    -12.08910422	     -0.41779454	     -4.13994147
      3.39000000	     -5.83751316	      4.84667964	    153.94147502	      0.64830189	      0.92035580	     -0.55781250	     -7.54673794	     -4.75170787	     -5.13317916	    -51.39633826	    -13.17763323	     20.30727953	     13.12805569	      4.94262452	    -16.93812297	    -26.18449903	     16.56723680	    -30.08852899	    -12.32229101	     -0.47347776	     -4.29367834
      3.40000000	     -5.95247962	      4.67271513	    154.34415747	      0.63925743	      0.92167451	     -0.56027318	     -5.60245397	     -5.23282154	     -4.83696500	    -53.33349295	    -11.62085606	     19.39085517	     12.18242554	      5.34334585	    -16.82761641	    -25.68934643	     16.92360591	    -29.51208344	    -12.55211072	     -0.48485786	     -4.47902881
      3.41000000	     -6.05180095	      4.52318198	    154.83444703	      0.63020591	      0.92300475	     -0.56254947	     -3.70774045	     -5.63427758	     -4.60611239	    -54.94499909	     -9.87601355	     18.36008328	     11.22287003	      5.72417863	    -16.62951420	    -25.15045329	     17.23442274	    -29.02316932	    -12.76984426	     -0.44154618	     -4.79135609
      3.42000000	     -6.11753918	      4.40244673	    155.42874457	      0.62118722	      0.92430785	     -0.56460475	     -1.85060734	     -5.94867857	     -4.46707720	    -56.23062563	     -8.05386709	     17.23995296	     10.29159818	      6.07278783	    -16.28278988	    -24.61257719	     17.49250650	    -28.55303046	    -12.96318813	     -0.33608420	     -5.15724617
      3.43000000	     -6.15111510	      4.30813861	    156.13655259	      0.61219051	      0.92559363	     -0.56643594	     -0.04320304	     -6.17948584	     -4.41702403	    -57.18567027	     -6.22343322	     16.16594097	      9.38390333	      6.39143692	    -15.76767016	    -24.06814350	     17.65868402	    -28.10907079	    -13.12738820	     -0.17378395	     -5.58766482
      3.44000000	     -6.17039108	      4.28646034	    156.94725903	      0.60318032	      0.92689974	     -0.56811115	      1.65478168	     -6.29207137	     -4.45185841	    -57.78783321	     -4.44022264	     14.93981527	      8.46176241	      6.61581585	    -15.18610100	    -23.53943258	     17.91771011	    -27.65510955	    -13.28936136	      0.08301153	     -6.08815309
      3.45000000	     -6.17774399	      4.27843667	    157.85269871	      0.59420796	      0.92817466	     -0.56959264	      3.29089148	     -6.35965513	     -4.55270534	    -58.09627484	     -2.79181404	     13.87243162	      7.54551299	      6.82054463	    -14.45855975	    -22.99931351	     18.09421750	    -27.23289562	    -13.43220329	      0.36509450	     -6.62296067
      3.46000000	     -6.18357167	      4.28987861	    158.83618086	      0.58523692	      0.92942419	     -0.57092265	      4.84202343	     -6.39271476	     -4.71584676	    -58.11421815	     -1.32330952	     12.89723258	      6.61057691	      6.99443604	    -13.63273279	    -22.43628640	     18.23893410	    -26.83832441	    -13.55970108	      0.67237963	     -7.17962176
      3.47000000	     -6.20954491	      4.30890737	    159.87833230	      0.57637667	      0.93064164	     -0.57212641	      6.30805406	     -6.39734510	     -4.87987752	    -57.87626466	     -0.07227599	     12.00914791	      5.66414977	      7.15204584	    -12.68848062	    -21.88732434	     18.31881720	    -26.48553204	    -13.71040473	      0.97505784	     -7.78556821
      3.48000000	     -6.24669018	      4.34749394	    160.92966212	      0.56747742	      0.93181727	     -0.57330033	      7.67208277	     -6.38588949	     -5.06606593	    -57.37038426	      1.01969999	     10.95832627	      4.67064052	      7.26922712	    -11.73502038	    -21.30080594	     18.43337627	    -26.17507482	    -13.84807073	      1.28505156	     -8.31390411
      3.49000000	     -6.30847071	      4.37832876	    161.97987689	      0.55865521	      0.93292747	     -0.57446389	      8.94772325	     -6.36833477	     -5.21606612	    -56.63256921	      1.92922904	      9.88296900	      3.65287910	      7.37999274	    -10.71620169	    -20.71555143	     18.52565311	    -25.95028288	    -14.00352386	      1.56275082	     -8.83553575
      3.50000000	     -6.38444716	      4.39782465	    163.02228211	      0.54986113	      0.93394262	     -0.57562006	     10.13653088	     -6.35789290	     -5.35298093	    -55.66949944	      2.67161825	      8.84632747	      2.61330542	      7.48950915	     -9.61557709	    -20.12191028	     18.58028769	    -25.83001096	    -14.15799671	      1.81239408	     -9.34222308
      3.51000000	     -6.47070057	      4.40221104	    164.03849731	      0.54106570	      0.93484457	     -0.57681911	     11.23605861	     -6.35985907	     -5.48302000	    -54.48268528	      3.29514845	      7.82588482	      1.55270450	      7.59903451	     -8.44728004	    -19.52569013	     18.63409751	    -25.83225738	    -14.30575673	      2.02247179	     -9.80411948
